<svg xmlns="http://www.w3.org/2000/svg" version="1.1" xmlns:xlink="http://www.w3.org/1999/xlink" viewBox="0 0 200 200"><rect width="200" height="200" fill="url('#gradient')"></rect><defs><linearGradient id="gradient" gradientTransform="rotate(129 0.5 0.5)"><stop offset="0%" stop-color="#631fd8"></stop><stop offset="100%" stop-color="#2d3aa4"></stop></linearGradient></defs><g><g fill="#5ebbb5" transform="matrix(2.720992028343667,0,0,2.720992028343667,10.082942112422401,114.88257521332841)" stroke="#0a0d04" stroke-width="0.2"><path d="M9.98 0L9.15-2.66L4.45-2.66L3.63 0L-0.03 0L5.19-14.22L8.41-14.22L13.66 0L9.98 0ZM6.80-10.23L5.27-5.30L8.33-5.30L6.80-10.23ZM20.83 0L20.73-1.14Q19.69 0.20 17.91 0.20L17.91 0.20Q16.17 0.20 15.28-0.82Q14.38-1.83 14.38-3.72L14.38-3.72L14.38-10.57L17.68-10.57L17.68-3.70Q17.68-2.34 18.99-2.34L18.99-2.34Q20.13-2.34 20.61-3.15L20.61-3.15L20.61-10.57L23.92-10.57L23.92 0L20.83 0ZM26.26-13.19L29.55-13.19L29.55-10.57L31.29-10.57L31.29-8.28L29.55-8.28L29.55-3.45Q29.55-2.85 29.77-2.62Q29.98-2.38 30.62-2.38L30.62-2.38Q31.10-2.38 31.44-2.44L31.44-2.44L31.44-0.09Q30.55 0.20 29.58 0.20L29.58 0.20Q27.88 0.20 27.07-0.61Q26.26-1.41 26.26-3.04L26.26-3.04L26.26-8.28L24.91-8.28L24.91-10.57L26.26-10.57L26.26-13.19ZM35.80-15L35.80-9.43Q36.86-10.76 38.50-10.76L38.50-10.76Q40.24-10.76 41.13-9.73Q42.02-8.69 42.04-6.67L42.04-6.67L42.04 0L38.74 0L38.74-6.59Q38.74-7.43 38.40-7.83Q38.06-8.22 37.24-8.22L37.24-8.22Q36.22-8.22 35.80-7.58L35.80-7.58L35.80 0L32.51 0L32.51-15L35.80-15ZM47.34-10.57L47.34 0L44.04 0L44.04-10.57L47.34-10.57ZM43.85-13.29L43.85-13.29Q43.85-13.99 44.36-14.44Q44.86-14.89 45.67-14.89Q46.48-14.89 46.99-14.44Q47.50-13.99 47.50-13.29Q47.50-12.59 46.99-12.14Q46.48-11.69 45.67-11.69Q44.86-11.69 44.36-12.14Q43.85-12.59 43.85-13.29ZM53.40 0L50.10 0L50.10-8.28L48.56-8.28L48.56-10.57L50.10-10.57L50.10-11.41Q50.10-13.21 51.16-14.21Q52.23-15.21 54.15-15.21L54.15-15.21Q54.85-15.21 55.69-15L55.69-15L55.70-12.58Q55.40-12.67 54.89-12.67L54.89-12.67Q53.40-12.67 53.40-11.38L53.40-11.38L53.40-10.57L55.46-10.57L55.46-8.28L53.40-8.28L53.40 0ZM59.17-10.57L60.84-4.61L62.60-10.57L66.12-10.57L61.82 1.77L61.63 2.22Q60.71 4.27 58.39 4.27L58.39 4.27Q57.74 4.27 57.03 4.07L57.03 4.07L57.03 1.72L57.46 1.72Q58.15 1.72 58.52 1.52Q58.89 1.32 59.06 0.80L59.06 0.80L59.33 0.10L55.65-10.57L59.17-10.57Z"></path></g></g></svg>